<?xml version="1.0" standalone="no"?>
<!DOCTYPE svg PUBLIC "-//W3C//DTD SVG 1.0//EN" "http://www.w3.org/TR/2001/REC-SVG-20010904/DTD/svg10.dtd">
<svg xmlns="http://www.w3.org/2000/svg" xmlns:xlink="http://www.w3.org/1999/xlink" xmlns:xodm="http://www.corel.com/coreldraw/odm/2003" xml:space="preserve" width="7605.919921875" height="8620.7197265625" version="1.0" style="shape-rendering:geometricPrecision; text-rendering:geometricPrecision; image-rendering:optimizeQuality; fill-rule:evenodd; clip-rule:evenodd" viewBox="0 0 7605.92 8620.72">
 <defs>
  <style type="text/css">
   <![CDATA[
    .str1 {stroke:black;stroke-width:69.98;stroke-miterlimit:22.9256}
    .str0 {stroke:black;stroke-width:19.84;stroke-miterlimit:22.9256}
    .str2 {stroke:#5F5F61;stroke-width:19.84;stroke-miterlimit:22.9256}
    .str3 {stroke:#FCFFFF;stroke-width:19.84;stroke-miterlimit:22.9256}
    .fil2 {fill:none}
    .fil0 {fill:black}
    .fil3 {fill:#135A32}
    .fil7 {fill:#5F5F61}
    .fil6 {fill:#901219}
    .fil5 {fill:#A6B2A8}
    .fil4 {fill:#EE2732}
    .fil1 {fill:#FCFFFF}
   ]]>
  </style>
 </defs>
 <g id="Camada_x0020_1">
  <metadata id="CorelCorpID_0Corel-Layer"/>
  <g id="_2483914865184">
   <g>
    <polygon class="fil0" points="238.12,4160.84 938.72,7118.23 3802.96,7404.27 6667.2,7118.23 7367.8,4160.84 3802.96,4160.84 "/>
    <polygon class="fil1 str0" points="388.24,4279.55 1034.73,7008.51 3802.96,7284.97 6571.19,7008.51 7217.68,4279.55 "/>
    <polygon class="fil2 str1" points="491.62,4361.3 1100.84,6932.96 3802.96,7202.81 6505.08,6932.96 7114.3,4361.3 "/>
   </g>
   <g>
    <path class="fil0" d="M4302.85 4511.43c29.4,-21.99 65.85,-25.85 99.2,-10.5l32.67 15.04c42.88,19.75 65.18,66.04 53.91,111.88 -22.01,89.45 -20.73,295.62 -28.07,388.6 -12.79,162.37 -29.79,327.39 -33.01,490.13 -0.95,48.25 -7.51,92.8 -16.95,139.92 -3.37,16.79 -10.27,44.65 -9.06,61.67 0.5,7 3.14,12.44 6.81,18.38 21.31,34.5 19.66,76.22 -4.33,108.93 -122.81,167.44 -192.59,439.48 -219.44,642.6 -21.31,161.22 -25.73,340.05 6.75,500.01 21.27,104.73 66.27,234.8 160.08,296.63 18.46,12.18 38.38,21.38 59.59,27.61 596.92,175.33 1111.76,-838.96 1106.85,-1316.54 -0.36,-35.42 16.66,-66.01 46.96,-84.38 4.13,-2.52 7.78,-5.48 11.08,-9.02 23.57,-25.19 36.2,-86.69 43.01,-119.41 17.43,-83.63 30.87,-163.39 58.94,-244.82 73.43,-213.01 96.86,-498.58 64.96,-720.11 -5.62,-39.08 11.33,-75.6 44.66,-96.47 16.14,-11.68 29.48,-72.36 32.6,-90.6 12.02,-69.95 11.86,-147.43 8.25,-218.17 -4.2,-82.64 -14.02,-167.2 -29.45,-248.49 -6.73,-35.48 5.25,-69.3 32.8,-92.61 27.55,-23.33 62.88,-29.57 96.75,-17.07 39.86,14.7 75.19,40.07 113.05,54.04 25.93,4.27 39.27,2.13 67.11,12.4 16.82,6.21 29.83,15.41 41.29,29.21 110.28,132.8 295.8,250.13 456.4,310.46 114.89,43.17 245.74,53.44 341.83,-35.56 133.94,-124.06 130.09,-356.33 41.67,-505.1 -126.89,-213.47 -226.47,-416.92 -428.97,-572.95 -11.92,-9.19 -20.37,-19.34 -27.24,-32.75 -99.6,-194.14 -416.03,-383.61 -603.19,-485.68 -5.96,-3.25 -10.76,-6.53 -15.97,-10.89 -55.31,-46.38 -105.01,-93.86 -166.66,-132.63 -80.06,-50.34 -165.95,-78.1 -259.26,-91.95 -29.39,-4.37 -52.94,-19.88 -68.58,-45.14 -15.64,-25.27 -19.01,-53.26 -9.82,-81.52 53.26,-163.64 116.13,-290.06 66.49,-465.99 -2.65,-9.36 -3.76,-17.66 -3.67,-27.38 1.23,-133.58 4.68,-268.03 1.46,-401.55 -2.39,-99.05 -9.12,-198.19 -29.81,-295.29 -42.96,-201.66 -147.05,-377.2 -262.24,-545.59 -288.46,-421.66 -800.15,-867.81 -1346.79,-674.22 -21.95,7.78 -43.17,7.78 -65.12,0 -546.64,-193.59 -1058.32,252.56 -1346.79,674.22 -115.19,168.39 -219.28,343.92 -262.24,545.59 -20.69,97.1 -27.42,196.24 -29.81,295.29 -3.22,133.52 0.23,267.96 1.46,401.55 0.09,9.72 -1.02,18.02 -3.67,27.38 -49.64,175.93 13.23,302.36 66.49,465.99 9.19,28.26 5.82,56.24 -9.82,81.52 -15.64,25.26 -39.2,40.76 -68.58,45.14 -93.32,13.85 -179.21,41.61 -259.26,91.95 -61.65,38.77 -111.35,86.26 -166.66,132.63 -5.21,4.36 -10.01,7.64 -15.97,10.89 -187.16,102.08 -503.59,291.54 -603.19,485.68 -6.87,13.41 -15.32,23.56 -27.24,32.75 -202.5,156.03 -302.08,359.48 -428.97,572.95 -88.43,148.77 -92.28,381.04 41.67,505.1 96.09,88.99 226.94,78.73 341.83,35.56 160.6,-60.33 346.13,-177.66 456.4,-310.46 11.46,-13.8 24.47,-23 41.29,-29.21 27.85,-10.27 41.65,-8.23 66.7,-12.3 37.84,-13.95 73.61,-39.44 113.47,-54.14 33.87,-12.5 69.2,-6.26 96.75,17.07 27.55,23.32 39.53,57.14 32.8,92.61 -15.42,81.3 -25.25,165.86 -29.45,248.49 -3.61,70.74 -3.77,148.22 8.25,218.17 3.12,18.24 16.38,78.88 32.54,90.56 33.46,20.95 50.34,57.43 44.72,96.51 -31.9,221.53 -8.47,507.1 64.96,720.11 28.07,81.44 41.52,161.2 58.94,244.82 6.81,32.72 19.44,94.22 43.01,119.41 3.3,3.53 6.95,6.5 11.08,9.02 30.3,18.37 47.32,48.96 46.96,84.38 -4.91,477.58 509.93,1491.86 1106.85,1316.54 21.2,-6.23 41.13,-15.43 59.59,-27.61 93.8,-61.83 138.8,-191.89 160.08,-296.63 32.48,-159.97 28.07,-338.8 6.75,-500.01 -26.86,-203.12 -96.63,-475.16 -219.44,-642.6 -23.99,-32.71 -25.65,-74.42 -4.33,-108.93 3.67,-5.94 6.32,-11.38 6.81,-18.38 1.2,-17.02 -5.69,-44.88 -9.06,-61.67 -9.44,-47.12 -16,-91.67 -16.95,-139.92 -3.21,-162.74 -20.21,-327.77 -33.01,-490.13 -7.34,-92.98 -6.06,-299.15 -28.07,-388.6 -11.27,-45.84 11.04,-92.14 53.91,-111.88l32.67 -15.04c33.35,-15.34 69.8,-11.48 99.2,10.5 314.67,235.42 685.11,235.43 999.79,0z"/>
    <path class="fil3" d="M5075.65 5231.12c-52.11,34.63 -115.52,134.14 -115.52,134.14 0,0 -60.85,192.21 -216.36,386.16 -155.51,193.95 -230.64,288.3 -283.07,497.98 -52.42,209.67 -59.47,429.82 -59.47,597.57 0,167.74 64.65,248.12 148.52,265.59 83.87,17.47 290.05,-80.38 456.05,-325 166,-244.63 304.03,-538.18 311.03,-732.12 6.98,-193.96 -5.24,-529.46 -40.19,-649.15 0,0 -70.05,-154.5 -125.22,-251.94 -90.57,563.79 -225.86,1053.09 -403.37,1458.39 115.14,-356.64 220.63,-697.55 283.57,-1079.68 16.62,-100.88 31.23,-201.89 44.04,-301.95z"/>
    <path class="fil3" d="M2585.73 5231.12c52.1,34.63 115.51,134.14 115.51,134.14 0,0 60.86,192.21 216.36,386.16 155.51,193.95 230.65,288.3 283.07,497.98 52.42,209.67 59.48,429.82 59.48,597.57 0,167.74 -64.65,248.12 -148.52,265.59 -83.88,17.47 -290.05,-80.38 -456.06,-325 -166,-244.63 -304.03,-538.18 -311.02,-732.12 -6.99,-193.96 5.23,-529.46 40.18,-649.15 0,0 70.05,-154.5 125.22,-251.94 90.58,563.79 225.86,1053.09 403.37,1458.39 -115.14,-356.64 -220.63,-697.55 -283.57,-1079.68 -16.61,-100.88 -31.23,-201.89 -44.03,-301.95z"/>
    <g>
     <path class="fil1" d="M4570.81 694.12c167.18,156.2 351.92,334.1 411.79,521.24 -337.43,-363.26 -633.6,-515.28 -996.38,-727.14 0,0 232.15,-31.46 595.59,62.9 -131.05,-97.85 -456.39,-288.3 -595.59,-342.48 589.43,-16.68 1040.93,484.45 1215.89,1006.72 0,0 -262.1,-361.95 -631.3,-521.24z"/>
     <path class="fil1" d="M3062.82 694.12c-167.18,156.2 -351.92,334.1 -411.78,521.24 337.42,-363.26 633.59,-515.28 996.37,-727.14 0,0 -232.14,-31.46 -595.59,62.9 131.06,-97.85 456.39,-288.3 595.59,-342.48 -589.42,-16.68 -1040.92,484.45 -1215.89,1006.72 0,0 262.1,-361.95 631.3,-521.24z"/>
    </g>
    <g>
     <path class="fil4" d="M6175.41 3375.81c0,0 -113.07,17.42 -179.69,55.9 123.21,94.84 238.6,198.44 327.78,300.93 0,0 -176.83,-141.46 -337.19,-246.97 15.27,96.75 79.02,236.97 79.02,236.97 0,0 140.67,111.83 172.12,162.51 31.45,50.66 96.1,127.54 200.95,209.67 104.83,82.12 207.94,141.55 286.56,157.27 78.63,15.73 155.51,-13.97 125.81,-148.52 -29.7,-134.55 -162.51,-312.77 -221.91,-391.4 -59.4,-78.63 -121.43,-179.97 -215.78,-233.26 -94.36,-53.3 -237.64,-103.1 -237.64,-103.1z"/>
     <g>
      <path class="fil1" d="M6065.32 3722.64c0,0 -63.74,-140.22 -79.02,-236.97 -10.59,-6.96 -21.11,-13.78 -31.5,-20.38 -167.74,-106.58 -340.73,-185.21 -340.73,-185.21 0,0 82.12,249.85 99.6,307.53 17.48,57.66 31.44,85.66 87.36,122.36 55.92,36.7 307.98,175.18 307.98,175.18 -20.61,-54.61 -37.07,-104.07 -43.69,-162.51z"/>
      <path class="fil1" d="M5600.1 3171.74c126.11,69.05 265.24,159.6 395.62,259.96 66.62,-38.48 179.69,-55.9 179.69,-55.9 0,0 58.54,-6.99 104.84,-4.36 46.3,2.62 68.15,4.36 68.15,4.36 0,0 -74.21,-82.13 -228.85,-198.33 -154.64,-116.2 -225.4,-179.1 -337.23,-183.47 -111.83,-4.36 -268.22,-27.08 -268.22,-27.08 65.56,-23.95 133.71,-45.49 198.32,-70.77 0,0 -176.48,-108.32 -384.9,-140.27 0,0 94.36,127.55 131.06,200.94 36.69,73.38 68.14,174.73 141.53,214.92z"/>
     </g>
    </g>
    <g>
     <path class="fil4" d="M1430.5 3375.81c0,0 113.07,17.42 179.7,55.9 -123.21,94.84 -238.6,198.44 -327.78,300.93 0,0 176.82,-141.46 337.18,-246.97 -15.27,96.75 -79.02,236.97 -79.02,236.97 0,0 -140.66,111.83 -172.12,162.51 -31.45,50.66 -96.09,127.54 -200.94,209.67 -104.84,82.12 -207.94,141.55 -286.57,157.27 -78.63,15.73 -155.5,-13.97 -125.81,-148.52 29.7,-134.55 162.52,-312.77 221.91,-391.4 59.41,-78.63 121.44,-179.97 215.79,-233.26 94.36,-53.3 237.63,-103.1 237.63,-103.1z"/>
     <g>
      <path class="fil1" d="M1540.59 3722.64c0,0 63.74,-140.22 79.02,-236.97 10.6,-6.96 21.12,-13.78 31.5,-20.38 167.74,-106.58 340.73,-185.21 340.73,-185.21 0,0 -82.12,249.85 -99.6,307.53 -17.48,57.66 -31.44,85.66 -87.36,122.36 -55.92,36.7 -307.97,175.18 -307.97,175.18 20.61,-54.61 37.06,-104.07 43.68,-162.51z"/>
      <path class="fil1" d="M2005.81 3171.74c-126.11,69.05 -265.24,159.6 -395.61,259.96 -66.63,-38.48 -179.7,-55.9 -179.7,-55.9 0,0 -58.54,-6.99 -104.84,-4.36 -46.3,2.62 -68.15,4.36 -68.15,4.36 0,0 74.21,-82.13 228.85,-198.33 154.64,-116.2 225.4,-179.1 337.24,-183.47 111.82,-4.36 268.22,-27.08 268.22,-27.08 -65.57,-23.95 -133.71,-45.49 -198.33,-70.77 0,0 176.48,-108.32 384.9,-140.27 0,0 -94.36,127.55 -131.05,200.94 -36.7,73.38 -68.15,174.73 -141.54,214.92z"/>
     </g>
    </g>
    <g>
     <path class="fil1" d="M4960.12 5365.26c0,0 63.42,-99.51 115.52,-134.14 110.72,-866.06 84.45,-1659.73 27.9,-1659.73 -87.83,0 156.78,962.21 -324.07,1549.15 0,0 11.31,-281.13 10,-320.88 -1.31,-39.76 63.04,-100.36 149.19,-313.28 86.15,-212.91 65.08,-360.4 65.08,-360.4 0,0 -146.41,307.95 -191.83,400.57 -45.43,92.6 -117.07,202.68 -120.57,372.17 -3.49,169.5 -38.43,665.73 -57.65,770.57 89.11,-26.21 326.44,-304.03 326.44,-304.03z"/>
     <path class="fil1" d="M5151.41 5154.36c55.17,97.43 125.22,251.94 125.22,251.94 52.43,76.01 146.78,338.11 146.78,338.11 0,0 84.11,-379.19 117.32,-520.73 33.2,-141.53 13.97,-389.65 -19.22,-539.92 -33.21,-150.27 -94.36,-450.81 -94.36,-450.81 0,0 151.26,227.16 204.93,335.48 0,-160.75 -51.17,-926.09 -345.52,-1289.97 0,691.69 -45.84,1320.01 -135.15,1875.9z"/>
    </g>
    <g>
     <path class="fil1" d="M2701.25 5365.26c0,0 -63.42,-99.51 -115.51,-134.14 -110.73,-866.06 -84.46,-1659.73 -27.91,-1659.73 87.83,0 -156.77,962.21 324.07,1549.15 0,0 -11.31,-281.13 -9.99,-320.88 1.31,-39.76 -63.05,-100.36 -149.2,-313.28 -86.15,-212.91 -65.08,-360.4 -65.08,-360.4 0,0 146.41,307.95 191.84,400.57 45.42,92.6 117.07,202.68 120.56,372.17 3.49,169.5 38.44,665.73 57.66,770.57 -89.11,-26.21 -326.45,-304.03 -326.45,-304.03z"/>
     <path class="fil1" d="M2509.96 5154.36c-55.17,97.43 -125.22,251.94 -125.22,251.94 -52.43,76.01 -146.78,338.11 -146.78,338.11 0,0 -84.11,-379.19 -117.31,-520.73 -33.21,-141.53 -13.98,-389.65 19.21,-539.92 33.21,-150.27 94.36,-450.81 94.36,-450.81 0,0 -151.26,227.16 -204.93,335.48 0,-160.75 51.17,-926.09 345.52,-1289.97 0,691.69 45.85,1320.01 135.15,1875.9z"/>
    </g>
    <path class="fil5" d="M3895.84 4557.84c79.04,0 172.51,-22.38 286.28,-126.83 113.77,-104.45 595.88,-620.14 668.62,-786.13 72.74,-166 104.39,-442.25 104.39,-442.25 0,0 -21.46,16.77 -103.52,76.46 51.84,-128.72 98.54,-274.58 129.43,-423.59 52.32,-252.46 76.87,-602.69 -93.51,-817.36 -91.03,-114.7 -245.78,-217.91 -513.38,-340.64 -496.11,-227.54 -557.34,-540.86 -557.34,-540.86 0,0 -61.21,313.33 -557.33,540.86 -267.61,122.73 -422.36,225.94 -513.38,340.64 -170.38,214.66 -145.82,564.9 -93.51,817.36 30.88,149.02 77.59,294.87 129.43,423.59 -82.06,-59.69 -103.52,-76.46 -103.52,-76.46 0,0 31.65,276.25 104.39,442.25 72.74,166 554.84,681.69 668.62,786.13 113.77,104.45 207.25,126.83 286.28,126.83 52.68,0 105.38,0 158.06,0zm168.77 -1508.44c0,0 82.06,85.79 95.12,143.61 13.05,57.81 9.32,102.57 -69.01,104.45 -78.34,1.86 -157.63,81.12 -180.91,92.32 -23.3,11.2 -70.63,19.59 -93.01,13.99 -22.37,5.59 -69.71,-2.8 -93,-13.99 -23.29,-11.2 -102.58,-90.45 -180.91,-92.32 -78.33,-1.87 -82.06,-46.63 -69.01,-104.45 13.05,-57.82 95.12,-143.61 95.12,-143.61 -83.45,39.21 -147.32,109.15 -187.42,196.8 -40.1,87.65 44.77,100.71 130.56,113.76 57.18,8.7 121.44,60.24 169.21,93.53 58.29,40.61 135.45,28.61 135.45,28.61 0,0 77.17,12 135.46,-28.61 47.77,-33.28 112.03,-84.83 169.21,-93.53 85.79,-13.05 170.66,-26.1 130.56,-113.76 -40.1,-87.65 -103.97,-157.6 -187.42,-196.8zm827.26 -152.11c-162.28,1.95 -528.31,30.07 -665.36,-65.28 -9.32,34.47 -42.08,172.53 34.95,172.53 144.49,0 114.56,1.27 245.25,41.03 21.45,6.53 290.95,0 290.95,0 0,0 78.34,-16.78 94.21,-148.28zm-102.6 220.54c-76.84,0.39 -410.44,20.58 -462.54,-36.05 -2.49,65.89 -16.17,135.52 60.93,146.72 77.09,11.19 361.83,13.68 361.83,13.68l39.79 -124.34zm-2047.54 -223.95c239.58,8.72 440.99,34.58 665.83,-63.42 21.76,1.08 25.42,132.89 -4.42,153.87 -115.05,40.17 -402.88,71.78 -488.51,71.78 -89.52,0 -160.39,-16.79 -172.9,-162.23zm644.78 175.29c-199.55,66.52 -338.34,55.6 -544.6,52.22 0,0 16.79,124.97 76.47,123.1 59.69,-1.86 301.21,-13.99 330.12,-16.79 28.91,-2.8 102.59,-41.03 138.02,-158.53z"/>
    <g>
     <path class="fil5" d="M5333.21 1970.31c35.09,-25.65 64.72,-9.91 92.77,14.88 40.15,35.48 47.6,74.7 12.12,97.11 -35.48,22.41 -112.04,113.91 -179.26,224.08 -67.22,110.17 -197.93,442.56 -197.93,442.56 -27.39,-239.49 30.15,-601.6 272.3,-778.62z"/>
     <path class="fil5" d="M2300.41 1970.31c-35.09,-25.65 -64.72,-9.91 -92.78,14.88 -40.14,35.48 -47.6,74.7 -12.11,97.11 35.48,22.41 112.03,113.91 179.26,224.08 67.22,110.17 197.93,442.56 197.93,442.56 27.39,-239.49 -30.15,-601.6 -272.3,-778.62z"/>
    </g>
    <g>
     <path class="fil6" d="M4393.8 2711.82c-110.86,0 -200.74,-89.87 -200.74,-200.73 0,-110.86 89.88,-200.73 200.74,-200.73 66.65,0 125.72,32.48 162.23,82.49 1.06,1.37 2.06,2.79 3.02,4.25 22.38,32.37 35.49,71.65 35.49,113.99 0,110.86 -89.87,200.73 -200.73,200.73zm0 -450.02c-137.68,0 -249.29,111.61 -249.29,249.29 0,137.68 111.61,249.29 249.29,249.29 137.68,0 249.29,-111.61 249.29,-249.29 0,-137.68 -111.61,-249.29 -249.29,-249.29z"/>
     <path class="fil4" d="M4393.8 2678.21c92.3,0 167.12,-74.81 167.12,-167.12 0,-14.36 -1.81,-28.31 -5.22,-41.61 -11.4,14.45 -29.07,23.72 -48.91,23.72 -34.39,0 -62.25,-27.87 -62.25,-62.24 0,-27.31 17.57,-50.51 42.03,-58.9 -26.53,-17.74 -58.45,-28.1 -92.77,-28.1 -92.32,0 -167.13,74.82 -167.13,167.13 0,92.31 74.81,167.12 167.13,167.12z"/>
     <path class="fil1" d="M4486.58 2372.06c-24.46,8.39 -42.04,31.59 -42.04,58.9 0,34.38 27.87,62.24 62.25,62.24 19.84,0 37.51,-9.27 48.91,-23.72 3.4,13.3 5.22,27.24 5.22,41.61 0,92.31 -74.82,167.12 -167.12,167.12 -92.32,0 -167.13,-74.81 -167.13,-167.12 0,-92.31 74.81,-167.13 167.13,-167.13 34.33,0 66.24,10.35 92.78,28.1zm-92.78 339.76c110.86,0 200.73,-89.87 200.73,-200.73 0,-110.52 -89.54,-200.73 -200.73,-200.73 -110.86,0 -200.74,89.87 -200.74,200.73 0,110.86 89.88,200.73 200.74,200.73z"/>
     <path class="fil0" d="M4819.09 2430.96c13.2,-139.88 -108.44,-173.18 -218.5,-124.75 -108.02,47.54 -261.42,151.77 -400.01,178.48 -125.72,24.24 -237.7,6.68 -248.71,-110.84 -4.44,-47.44 19.53,-93.53 63.27,-112.05 -42.73,106.91 2.52,168.87 115.21,106.41 87.82,-48.69 220.31,-155.19 344.33,-204.91 236.69,-94.91 474.67,142.84 344.42,267.67z"/>
     <path class="fil0" d="M3605.44 2760.38c0,0 -23.94,-92.38 -63.98,-140.27 -19.83,-23.73 -29.78,-27.24 -56.71,-8.78 -49.72,34.08 -102.27,128.25 -234.1,149.05 -160.59,25.33 -265.16,-80.7 -265.16,-80.7 0,0 291.31,62.27 371.6,-136.72 -65.46,9.69 -124.41,16.2 -165.74,10.15 -66.18,-9.68 -113.32,-114.78 -155.1,-84.09 -41.78,30.71 4.86,62.73 29.51,88.92 -36.14,6.88 -97.2,2.66 -134.43,-17.62 -101.72,-55.42 98.96,-185.04 147.5,-195.25 -63.72,-101.57 -260.25,-82.54 -258.63,75.62 -135.23,-117.72 81.12,-274.56 235.29,-278.23 117.65,-2.81 291.31,115.77 375.33,170.86 107.99,70.79 240.26,155.85 211.95,-51.5 0,0 45.75,32.83 51.36,91.65 5.59,58.82 -49.48,99.89 -49.48,99.89 0,0 10.27,268.91 -39.21,307.03z"/>
    </g>
    <path class="fil0" d="M3402.65 2984.48c29.88,-21.01 26.21,-152.96 4.43,-154.05 -225.11,98.12 -426.77,72.21 -666.63,63.48 12.52,145.62 83.48,162.43 173.11,162.43 85.74,0 373.91,-31.64 489.09,-71.87z"/>
    <path class="fil0" d="M3386.01 3069.42c-199.79,66.61 -338.75,55.67 -545.25,52.29 0,0 16.8,125.11 76.56,123.24 59.76,-1.86 301.56,-14 330.51,-16.8 28.94,-2.81 102.7,-41.08 138.18,-158.73z"/>
    <path class="fil0" d="M4261.99 3004.72c144.67,0 114.71,1.28 245.56,41.09 21.46,6.54 291.3,0 291.3,0 0,0 78.43,-16.81 94.32,-148.47 -162.47,1.96 -528.94,30.11 -666.17,-65.35 -9.33,34.52 -42.13,172.73 34.99,172.73z"/>
    <path class="fil0" d="M4790.45 3118.15c-76.94,0.39 -410.94,20.6 -463.1,-36.1 -2.49,65.97 -16.2,135.68 61,146.88 77.19,11.21 362.26,13.71 362.26,13.71l39.84 -124.49z"/>
    <polygon class="fil7" points="3929.33,3453.7 3948.01,3477.04 3883.58,3553.59 3816.81,3553.59 3750.04,3553.59 3685.61,3477.04 3704.29,3453.7 3708.96,3427.56 3628.66,3408.88 3628.66,3513.46 3737.68,3617.1 3816.81,3617.1 3895.94,3617.1 4004.96,3513.46 4004.96,3408.88 3924.66,3427.56 "/>
    <path class="fil0" d="M4121.84 3360.57c85.89,-13.07 170.86,-26.13 130.71,-113.9 -40.15,-87.76 -104.09,-157.78 -187.64,-197.04 0,0 82.16,85.89 95.23,143.78 13.07,57.89 9.34,102.7 -69.09,104.57 -78.43,1.86 -157.81,81.22 -181.13,92.43 -23.32,11.21 -70.71,19.61 -93.12,14.01 -22.39,5.59 -69.79,-2.81 -93.11,-14.01 -23.32,-11.21 -102.7,-90.56 -181.13,-92.43 -78.43,-1.87 -82.16,-46.68 -69.09,-104.57 13.07,-57.89 95.23,-143.78 95.23,-143.78 -83.55,39.26 -147.49,109.28 -187.65,197.04 -40.15,87.76 44.83,100.83 130.72,113.9 57.25,8.7 121.58,60.31 169.42,93.64 58.36,40.66 135.61,28.64 135.61,28.64 0,0 77.26,12.02 135.62,-28.64 47.83,-33.32 112.17,-84.94 169.42,-93.64z"/>
    <path class="fil0" d="M3816.81 3694.05c138.43,-119.56 353.96,10.56 501.54,59.75 47.62,15.88 66.28,1.86 56.95,-39.22 -9.33,-41.08 -29.87,-116.7 -29.87,-116.7 32.78,43.82 150.86,208.66 92.25,261.24 -11.48,10.28 -29.69,10.84 -54.91,-2.61 -174.91,-93.3 -374.65,-69.63 -565.96,-71.9 -191.3,2.26 -391.03,-21.4 -565.95,71.9 -25.21,13.45 -43.43,12.89 -54.91,2.61 -58.61,-52.57 59.47,-217.42 92.25,-261.24 0,0 -20.54,75.62 -29.87,116.7 -9.33,41.08 9.33,55.09 56.95,39.22 147.58,-49.18 363.11,-179.31 501.53,-59.75z"/>
    <path class="fil0" d="M4167.34 3970.02c-191.33,46.18 -509.72,46.18 -701.05,0 174.92,286.01 526.13,286.01 701.05,0z"/>
    <path class="fil7" d="M3362.12 4076.06l144.1 183.44c35.39,-42.29 37.64,-104.95 2.21,-150.06 -35.42,-45.1 -96.84,-57.74 -146.31,-33.38z"/>
    <line class="fil2 str2" x1="3342.61" y1="4091.34" x2="3486.75" y2="4274.85"/>
    <polygon class="fil7" points="3359.57,4153.05 3430.81,4243.75 3140.22,4400.54 "/>
    <path class="fil7" d="M4298.49 4076.06l-144.1 183.44c-35.39,-42.29 -37.64,-104.95 -2.21,-150.06 35.43,-45.1 96.84,-57.74 146.31,-33.38z"/>
    <line class="fil2 str2" x1="4318" y1="4091.34" x2="4173.86" y2="4274.85"/>
    <polygon class="fil7" points="4301.04,4153.05 4229.8,4243.75 4520.38,4400.54 "/>
   </g>
   <g>
    <polygon class="fil3" points="7022.93,5651.88 7605.92,4598 -0,4598 583,5651.88 -0,6705.77 7605.92,6705.77 "/>
    <polygon class="fil0" points="-0,4598 7192.25,6591.13 7605.92,6705.77 7192.25,5957.99 7022.93,5651.88 7192.25,5345.78 7605.92,4598 7192.25,4598 "/>
   </g>
   <g>
    <polygon class="fil1 str3" points="2058.43,4905.89 2212.6,4905.89 2212.6,5271.75 2277.21,5308.21 2341.82,5271.75 2341.82,4905.89 2496,4905.89 2496,5354.47 2350.78,5433.45 2350.78,5962.8 2196.6,5962.8 2196.6,5459.77 2239.5,5459.77 2058.43,5354.47 "/>
    <polygon class="fil1 str3" points="2655.72,4905.89 2655.72,5060.66 2796.72,5060.66 2796.72,5962.8 2950.89,5962.8 2950.89,5060.66 3091.88,5060.66 3091.88,4905.89 "/>
    <path class="fil1 str3" d="M1448.81 4905.89l449.89 0 0 1056.9 -449.89 0 0 -1056.9zm155.29 155.29l0 746.32 139.32 0 0 -746.32 -139.32 0z"/>
    <path class="fil1 str3" d="M4437.63 4905.89l449.9 0 0 1056.9 -449.9 0 0 -1056.9zm155.29 155.29l0 746.32 139.32 0 0 -746.32 -139.32 0z"/>
    <path class="fil1 str3" d="M3248.93 4905.89l439.35 0 0 1056.9 -154.17 0 0 -426.74 30.04 0 -161.05 -96.93 0 523.67 -154.18 0 0.01 -1056.9zm154.17 154.77l0 203.8 131.01 78.97 -0.03 -282.49 -130.98 -0.28z"/>
    <path class="fil1 str3" d="M3845.33 4905.89l436.34 0 0 437.54 -66 47.85 66 47.84 0 523.67 -436.34 0 0 -1056.9zm152.38 154.77l131.58 0 0 282.77 -131.58 -78.97 0 -203.8zm0 378.47l0 358.94 131.58 0 0 -262.01 35.33 0 -166.91 -96.93z"/>
    <path class="fil1 str3" d="M5327.45 5962.8l0 -426.74 35.34 0 -166.92 -96.93 0 523.67 -152.38 0 0 -1056.9 436.34 0 0 437.54 -66 47.85 66 47.84 0 523.67 -152.38 0zm-131.58 -902.13l131.58 0 0 282.77 -131.58 -78.97 0 -203.8z"/>
    <polygon class="fil1 str3" points="5635.78,4905.89 6071.06,4905.89 6071.06,5221.9 5919.93,5221.9 5919.93,5050.43 5792.38,5050.43 5792.38,5798.07 5919.93,5798.07 5919.93,5528.39 5951.88,5528.39 5880.62,5482.04 5880.62,5319.5 6118.36,5452.44 6118.36,5621.25 6071.06,5594.44 6071.06,5962.8 5635.78,5962.8 "/>
    <polygon class="fil1 str3" points="1138.67,5577.63 1035.5,5576.79 1035.5,5417.41 1292.84,5418.24 1292.84,5961.51 781.72,6386.73 768.32,6397.9 781.72,6364.02 781.72,4955.37 727.18,4905.88 1138.67,4905.88 1292.85,4948.25 1292.85,5135.14 1138.68,5135.14 1138.67,5061.85 935.89,5061.85 935.89,6054.08 1138.67,5885.53 "/>
    <polygon class="fil1 str3" points="6723.46,5061.16 6723.45,5127.64 6878.74,5127.64 6878.74,4905.88 6274.37,4905.88 6274.37,5556.79 6723.45,5556.79 6723.45,6100.16 6274.37,5786.78 6274.37,5976.14 6878.74,6397.9 6878.74,5401.5 6429.65,5401.5 6429.65,5125.48 "/>
   </g>
   <g>
    <g>
     <path class="fil3" d="M2651.42 7828.45l259.89 0 0 -259.89c-139.52,8.77 -251.12,120.37 -259.89,259.89z"/>
     <path class="fil3" d="M2911.31 7863.88l-259.89 0c8.77,139.52 120.37,251.12 259.89,259.89l0 -259.89z"/>
     <path class="fil3" d="M2946.74 7568.56l0 259.89 259.89 0c-8.77,-139.52 -120.37,-251.12 -259.89,-259.89z"/>
     <path class="fil3" d="M3206.63 7863.88l-259.89 0 0 259.89c139.52,-8.77 251.12,-120.37 259.89,-259.89z"/>
    </g>
    <g>
     <path class="fil3" d="M4659.19 7828.45l0 -259.89c-139.52,8.77 -251.12,120.37 -259.89,259.89l259.89 0z"/>
     <path class="fil3" d="M4659.19 7863.88l-259.89 0c8.77,139.52 120.37,251.12 259.89,259.89l0 -259.89z"/>
     <path class="fil3" d="M4694.61 7863.88l0 259.89c139.52,-8.77 251.12,-120.37 259.89,-259.89l-259.89 0z"/>
     <path class="fil3" d="M4694.61 7828.45l259.89 0c-8.77,-139.52 -120.37,-251.12 -259.89,-259.89l0 259.89z"/>
    </g>
    <polygon class="fil4" points="3802.96,7521.2 3891.7,7769.97 4180.61,7769.47 3946.55,7922.69 4036.34,8171.12 3802.96,8017.09 3569.58,8171.12 3659.37,7922.69 3425.32,7769.47 3714.22,7769.97 "/>
    <path class="fil0" d="M3802.96 8620.37l0 -230.08c871.56,-7.25 1638.37,-440.2 2090.14,-1094.9l271.56 8.26c-438.15,783.13 -1311.35,1317.07 -2317.05,1317.07 -14.92,0 -29.8,-0.12 -44.66,-0.36zm0 0l0 -230.08c-871.56,-7.25 -1638.37,-440.2 -2090.14,-1094.9l-271.56 8.26c438.15,783.13 1311.35,1317.07 2317.05,1317.07 14.92,0 29.8,-0.12 44.66,-0.36z"/>
   </g>
  </g>
 </g>
</svg>